<?xml version="1.0"?>
<svg xmlns="http://www.w3.org/2000/svg" xmlns:xlink="http://www.w3.org/1999/xlink" version="1.1" id="Capa_1" x="0px" y="0px" viewBox="0 0 504.055 504.055" style="enable-background:new 0 0 504.055 504.055;" xml:space="preserve" width="512px" height="512px" class=""><g><g>
	<g transform="translate(0 2)">
		<g>
			<rect x="184.88" y="405.195" style="fill:#214875" width="134.295" height="76.212" data-original="#7FACFA" class="" data-old_color="#7FACFA"/>
			<path style="fill:#214875" d="M42.192,82.383h419.672c18.542,0,33.574,15.031,33.574,33.574v276.984     c0,18.542-15.031,33.574-33.574,33.574H42.192c-18.542,0-33.574-15.031-33.574-33.574V115.957     C8.618,97.415,23.649,82.383,42.192,82.383z" data-original="#7FACFA" class="" data-old_color="#7FACFA"/>
			<path style="fill:#214875" d="M126.126,460.088h251.803c4.636,0,8.393,3.758,8.393,8.393v16.787     c0,4.636-3.758,8.393-8.393,8.393H126.126c-4.636,0-8.393-3.758-8.393-8.393v-16.787     C117.733,463.846,121.49,460.088,126.126,460.088z" data-original="#7FACFA" class="" data-old_color="#7FACFA"/>
		</g>
		<g>
			<polygon style="fill:#E3E7F2;" points="293.995,405.195 293.995,481.407 159.7,481.407 159.7,460.088 184.88,460.088      184.88,426.514 159.7,426.514 159.7,405.195    " data-original="#E3E7F2" class=""/>
			<path style="fill:#E3E7F2;" d="M42.192,82.383h394.492c18.542,0,33.574,15.031,33.574,33.574v276.984     c0,18.542-15.031,33.574-33.574,33.574H42.192c-18.542,0-33.574-15.031-33.574-33.574V115.957     C8.618,97.415,23.649,82.383,42.192,82.383z" data-original="#E3E7F2" class=""/>
			<path style="fill:#E3E7F2;" d="M126.126,460.088h226.623c4.636,0,8.393,3.758,8.393,8.393v16.787     c0,4.636-3.758,8.393-8.393,8.393H126.126c-4.636,0-8.393-3.758-8.393-8.393v-16.787     C117.733,463.846,121.49,460.088,126.126,460.088z" data-original="#E3E7F2" class=""/>
		</g>
		<path style="fill:#214875" d="M495.437,359.367v-243.41c0.002-8.905-3.534-17.446-9.831-23.743    c-6.297-6.297-14.838-9.833-23.743-9.831H42.192c-8.905-0.002-17.446,3.534-23.743,9.831c-6.297,6.297-9.833,14.838-9.831,23.743    l0,243.41H495.437z" data-original="#7FACFA" class="" data-old_color="#7FACFA"/>
		
			<linearGradient id="SVGID_1_" gradientUnits="userSpaceOnUse" x1="-52.7558" y1="642.6683" x2="-51.9766" y2="641.3696" gradientTransform="matrix(461.662 0 0 -276.9836 24414.9258 178059.1563)">
			<stop offset="0" style="stop-color:#D4E1F4"/>
			<stop offset="0.1717" style="stop-color:#D4E1F4"/>
			<stop offset="0.2" style="stop-color:#D4E1F4"/>
			<stop offset="0.2001" style="stop-color:#DAE4F4"/>
			<stop offset="0.2007" style="stop-color:#EBEBF4"/>
			<stop offset="0.2014" style="stop-color:#F6F1F4"/>
			<stop offset="0.2023" style="stop-color:#FDF4F4"/>
			<stop offset="0.205" style="stop-color:#FFF5F4"/>
			<stop offset="0.2522" style="stop-color:#FFF5F4"/>
			<stop offset="0.26" style="stop-color:#FFF5F4"/>
			<stop offset="0.26" style="stop-color:#D4E1F4"/>
			<stop offset="0.3974" style="stop-color:#D4E1F4"/>
			<stop offset="0.42" style="stop-color:#D4E1F4"/>
			<stop offset="0.4201" style="stop-color:#DAE4F4"/>
			<stop offset="0.4207" style="stop-color:#EBEBF4"/>
			<stop offset="0.4214" style="stop-color:#F6F1F4"/>
			<stop offset="0.4223" style="stop-color:#FDF4F4"/>
			<stop offset="0.425" style="stop-color:#FFF5F4"/>
			<stop offset="0.4894" style="stop-color:#FFF5F4"/>
			<stop offset="0.5" style="stop-color:#FFF5F4"/>
			<stop offset="0.5" style="stop-color:#F9F2F4"/>
			<stop offset="0.5001" style="stop-color:#E8EBF4"/>
			<stop offset="0.5003" style="stop-color:#DDE5F4"/>
			<stop offset="0.5005" style="stop-color:#D6E2F4"/>
			<stop offset="0.501" style="stop-color:#D4E1F4"/>
			<stop offset="0.7062" style="stop-color:#D4E1F4"/>
			<stop offset="0.74" style="stop-color:#D4E1F4"/>
			<stop offset="0.741" style="stop-color:#FFF5F4"/>
			<stop offset="0.8346" style="stop-color:#FFF5F4"/>
			<stop offset="0.85" style="stop-color:#FFF5F4"/>
			<stop offset="0.851" style="stop-color:#D4E1F4"/>
		</linearGradient>
		
		<path style="fill:#214875" d="M327.569,199.891v8.393H176.487v-8.393c0.004-36.87,26.601-68.361,62.951-74.534    c4.163-0.676,8.373-1.012,12.59-1.007C293.722,124.413,327.506,158.197,327.569,199.891z" data-original="#7FACFA" class="" data-old_color="#7FACFA"/>
		<g>
			<polygon style="fill:#467CAA" points="252.028,241.859 266.297,269.49 298.192,273.922 275.11,295.426 280.557,325.793      252.028,311.457 223.498,325.793 228.946,295.426 205.864,273.922 237.759,269.49    " data-original="#A4C2F7" class="active-path" data-old_color="#467caa"/>
			<polygon style="fill:#467CAA" points="121.929,241.859 136.198,269.49 168.093,273.922 145.011,295.426 150.459,325.793      121.929,311.457 93.4,325.793 98.847,295.426 75.765,273.922 107.66,269.49    " data-original="#A4C2F7" class="active-path" data-old_color="#467caa"/>
			<polygon style="fill:#467CAA" points="382.126,241.859 396.395,269.49 428.29,273.922 405.208,295.426 410.655,325.793      382.126,311.457 353.597,325.793 359.044,295.426 335.962,273.922 367.857,269.49    " data-original="#A4C2F7" class="active-path" data-old_color="#467caa"/>
		</g>
		<path style="fill:#214875" d="M310.782,65.596c0.011,15.586-6.175,30.537-17.196,41.558s-25.972,17.207-41.558,17.196    c-4.232-0.014-8.451-0.464-12.59-1.343c-26.959-5.925-46.164-29.809-46.164-57.411s19.205-51.486,46.164-57.411    c4.139-0.879,8.358-1.329,12.59-1.343c15.586-0.011,30.537,6.175,41.558,17.196S310.793,50.01,310.782,65.596z" data-original="#7FACFA" class="" data-old_color="#7FACFA"/>
		<g>
			<path style="fill:#E3E7F2;" d="M302.388,199.891l0,8.393H176.487v-8.393c0.004-36.87,26.601-68.361,62.951-74.534     c29.629,11.415,35.588,15.864,40.792,21.151C294.436,160.638,302.413,179.855,302.388,199.891z" data-original="#E3E7F2" class=""/>
			<path style="fill:#E3E7F2;" d="M285.601,65.596c0.002,27.603-19.204,51.488-46.164,57.411     c-26.959-5.925-46.164-29.809-46.164-57.411s19.205-51.486,46.164-57.411C266.397,14.108,285.604,37.993,285.601,65.596z" data-original="#E3E7F2" class=""/>
		</g>
	</g>
	<g transform="translate(0 11)">
		<path style="fill:#FFFFFF;" d="M67.372,417.514h-25.18c-8.905,0.002-17.446-3.534-23.743-9.831s-9.833-14.838-9.831-23.743    V106.957C8.151,88.909,22.382,73.89,40.429,73.383h24.929c-17.945,0.647-32.023,15.623-31.559,33.574v276.984    c-0.002,8.905,3.534,17.446,9.831,23.743C49.926,413.98,58.467,417.517,67.372,417.514z" data-original="#FFFFFF"/>
		<path style="fill:#FFFFFF;" d="M142.913,459.482v16.787c0.014,4.63,3.764,8.38,8.393,8.393h-25.18    c-4.63-0.014-8.38-3.764-8.393-8.393v-16.787c0.014-4.63,3.764-8.38,8.393-8.393h25.18    C146.677,451.102,142.927,454.852,142.913,459.482z" data-original="#FFFFFF"/>
		<rect x="184.88" y="417.514" style="fill:#FFFFFF;" width="25.18" height="33.574" data-original="#FFFFFF"/>
	</g>
	<g>
		<polygon style="fill:#FFFFFF;" points="17.011,117.957 17.011,227.072 17.011,361.367 0.224,361.367 0.224,227.072 0.224,117.957       " data-original="#FFFFFF"/>
		<g>
			<path style="fill:#1B2635" d="M8.618,193.498c2.222-0.034,4.349-0.903,5.959-2.434c3.246-3.31,3.246-8.608,0-11.918     l-1.258-1.008c-0.468-0.319-0.977-0.574-1.512-0.758c-0.476-0.242-0.986-0.41-1.513-0.501c-0.554-0.094-1.114-0.151-1.676-0.168     c-2.222,0.031-4.351,0.9-5.959,2.434c-3.169,3.341-3.169,8.578,0,11.919c0.802,0.758,1.741,1.356,2.766,1.763     C6.435,193.257,7.52,193.485,8.618,193.498z" data-original="#428DFF" class="" data-old_color="#1b2635"/>
			<path style="fill:#1B2635" d="M461.864,75.99H318.592c3.438-25.887-8.444-51.42-30.464-65.46     c-22.02-14.04-50.182-14.04-72.201,0s-33.902,39.573-30.464,65.46H42.192C19.025,76.017,0.252,94.79,0.224,117.957v33.574     c0,4.636,3.758,8.393,8.393,8.393s8.393-3.758,8.393-8.393v-33.574c0.015-13.9,11.28-25.165,25.18-25.18h147.632     c5.555,13.605,15.401,25.025,28.04,32.523c-30.234,13.492-49.724,43.484-49.771,76.592h-16.787c-4.636,0-8.393,3.758-8.393,8.393     c0,4.636,3.758,8.393,8.393,8.393h201.443c4.636,0,8.393-3.758,8.393-8.393c0-4.636-3.758-8.393-8.393-8.393h-16.787     c-0.047-33.108-19.536-63.1-49.77-76.592c12.639-7.498,22.484-18.917,28.039-32.523h147.632c13.9,0.015,25.165,11.28,25.18,25.18     v235.016H17.011V218.678c0-4.636-3.758-8.393-8.393-8.393s-8.393,3.758-8.393,8.393v176.262     c0.027,23.167,18.801,41.94,41.967,41.967h134.295v16.787h-58.754c-2.226-0.001-4.361,0.884-5.936,2.458     c-1.574,1.574-2.458,3.709-2.458,5.936v33.574c-0.001,2.226,0.884,4.361,2.458,5.936c1.574,1.574,3.709,2.458,5.936,2.458h268.59     c2.226,0.001,4.361-0.884,5.936-2.458c1.574-1.574,2.458-3.709,2.458-5.936v-33.574c0.001-2.226-0.884-4.361-2.458-5.936     c-1.574-1.574-3.709-2.458-5.936-2.458h-58.754v-16.787h134.295c23.167-0.027,41.94-18.801,41.967-41.967V117.957     C503.804,94.79,485.03,76.017,461.864,75.99z M319.175,201.891H184.88c0-37.085,30.063-67.148,67.148-67.148     S319.175,164.807,319.175,201.891z M252.028,117.957c-27.813,0-50.361-22.547-50.361-50.361s22.547-50.361,50.361-50.361     c27.813,0,50.361,22.547,50.361,50.361C302.358,95.397,279.828,117.927,252.028,117.957z M377.929,487.268H126.126v-16.787     h251.803V487.268z M310.782,453.695H193.274v-16.787h117.508V453.695z M461.864,420.121H42.192     c-13.9-0.015-25.165-11.28-25.18-25.18v-25.18h470.033v25.18C487.029,408.841,475.764,420.106,461.864,420.121z" data-original="#428DFF" class="" data-old_color="#1b2635"/>
			<path style="fill:#1B2635" d="M306.192,273.391c-0.974-3.088-3.638-5.34-6.844-5.787l-27.59-3.832l-12.271-23.762     c-1.587-2.6-4.413-4.186-7.459-4.186c-3.046,0-5.872,1.586-7.459,4.186l-12.27,23.762l-27.59,3.832     c-3.206,0.448-5.869,2.7-6.844,5.787c-0.975,3.087-0.088,6.46,2.279,8.668l19.73,18.385l-4.639,25.865     c-0.562,3.13,0.692,6.308,3.24,8.211c2.548,1.902,5.952,2.202,8.793,0.773l24.762-12.443l24.762,12.443     c2.841,1.429,6.245,1.129,8.793-0.773s3.802-5.081,3.24-8.211l-4.639-25.865l19.73-18.385     C306.282,279.852,307.169,276.478,306.192,273.391z M269.388,291.285c-2.087,1.944-3.044,4.815-2.541,7.623l2.484,13.852     l-13.533-6.803c-2.373-1.191-5.168-1.191-7.541,0l-13.533,6.803l2.484-13.852c0.503-2.808-0.454-5.679-2.541-7.623l-10.172-9.479     l14.426-2c2.701-0.379,5.051-2.044,6.303-4.467l6.803-13.18l6.803,13.18c1.252,2.423,3.602,4.089,6.303,4.467l14.426,2     L269.388,291.285z" data-original="#428DFF" class="" data-old_color="#1b2635"/>
			<path style="fill:#1B2635" d="M176.093,273.391c-0.974-3.088-3.638-5.34-6.844-5.787l-27.59-3.832l-12.271-23.762     c-1.587-2.6-4.413-4.186-7.459-4.186s-5.872,1.586-7.459,4.186l-12.27,23.762l-27.59,3.832c-3.206,0.448-5.869,2.7-6.844,5.787     c-0.975,3.087-0.088,6.46,2.279,8.668l19.73,18.385l-4.639,25.865c-0.562,3.13,0.692,6.308,3.24,8.211s5.952,2.202,8.793,0.773     l24.762-12.443l24.762,12.443c2.841,1.429,6.245,1.129,8.793-0.773c2.548-1.902,3.802-5.081,3.24-8.211l-4.639-25.865     l19.73-18.385C176.183,279.852,177.07,276.478,176.093,273.391z M139.29,291.285c-2.087,1.944-3.044,4.815-2.541,7.623     l2.484,13.852l-13.533-6.803c-2.373-1.191-5.168-1.191-7.541,0l-13.533,6.803l2.484-13.852c0.503-2.808-0.454-5.679-2.541-7.623     l-10.172-9.479l14.426-2c2.701-0.379,5.051-2.044,6.303-4.467l6.803-13.18l6.803,13.18c1.252,2.423,3.602,4.089,6.303,4.467     l14.426,2L139.29,291.285z" data-original="#428DFF" class="" data-old_color="#1b2635"/>
			<path style="fill:#1B2635" d="M436.29,273.391c-0.974-3.088-3.638-5.34-6.844-5.787l-27.59-3.832l-12.271-23.762     c-1.587-2.6-4.413-4.186-7.459-4.186s-5.872,1.586-7.459,4.186l-12.27,23.762l-27.59,3.832c-3.206,0.448-5.869,2.7-6.844,5.787     c-0.975,3.087-0.088,6.46,2.279,8.668l19.73,18.385l-4.639,25.865c-0.562,3.13,0.692,6.308,3.24,8.211     c2.548,1.902,5.952,2.202,8.793,0.773l24.762-12.443l24.762,12.443c2.841,1.429,6.245,1.129,8.793-0.773s3.802-5.081,3.24-8.211     l-4.639-25.865l19.73-18.385C436.38,279.852,437.267,276.478,436.29,273.391z M399.487,291.285     c-2.087,1.944-3.044,4.815-2.541,7.623l2.484,13.852l-13.533-6.803c-2.373-1.191-5.168-1.191-7.541,0l-13.533,6.803l2.484-13.852     c0.503-2.808-0.454-5.679-2.541-7.623l-10.172-9.479l14.426-2c2.701-0.379,5.051-2.044,6.303-4.467l6.803-13.18l6.803,13.18     c1.252,2.423,3.602,4.089,6.303,4.467l14.426,2L399.487,291.285z" data-original="#428DFF" class="" data-old_color="#1b2635"/>
		</g>
	</g>
</g></g> </svg>
