<?xml version="1.0"?>
<svg xmlns="http://www.w3.org/2000/svg" xmlns:xlink="http://www.w3.org/1999/xlink" version="1.1" id="Capa_1" x="0px" y="0px" viewBox="0 0 512 512" style="enable-background:new 0 0 512 512;" xml:space="preserve" width="512px" height="512px" class=""><g><g>
	<g transform="translate(1 1)">
		<rect x="186.733" y="412.525" style="fill:#E3E7F2;" width="136.533" height="77.397" data-original="#E3E7F2" class=""/>
		<path style="fill:#214875" d="M41.667,84.333h426.667c18.851,0,34.133,15.282,34.133,34.133v281.6    c0,18.851-15.282,34.133-34.133,34.133H41.667c-18.851,0-34.133-15.282-34.133-34.133v-281.6    C7.533,99.615,22.815,84.333,41.667,84.333z" data-original="#7FACFA" class="" data-old_color="#7FACFA"/>
		<path style="fill:#E3E7F2;" d="M41.667,84.333h401.067c18.851,0,34.133,15.282,34.133,34.133v281.6    c0,18.851-15.282,34.133-34.133,34.133H41.667c-18.851,0-34.133-15.282-34.133-34.133v-281.6    C7.533,99.615,22.815,84.333,41.667,84.333z" data-original="#E3E7F2" class=""/>
		<path style="fill:#214875" d="M502.467,118.467v247.467H7.533l0-247.467c-0.003-9.054,3.593-17.737,9.995-24.139    c6.402-6.402,15.085-9.997,24.139-9.995h426.667c9.053-0.003,17.737,3.593,24.139,9.995    C498.874,100.73,502.469,109.413,502.467,118.467z" data-original="#7FACFA" class="" data-old_color="#7FACFA"/>
		<g>
			<path style="fill:#E3E7F2;" d="M476.867,118.467v247.467H7.533l0-247.467c-0.003-9.054,3.593-17.737,9.995-24.139     c6.402-6.402,15.085-9.997,24.139-9.995h401.067c9.053-0.003,17.737,3.593,24.139,9.995     C473.274,100.73,476.869,109.413,476.867,118.467z" data-original="#E3E7F2" class=""/>
			<path style="fill:#E3E7F2;" d="M127,468.333h256c4.713,0,8.533,3.82,8.533,8.533v17.067c0,4.713-3.82,8.533-8.533,8.533H127     c-4.713,0-8.533-3.821-8.533-8.533v-17.067C118.467,472.154,122.287,468.333,127,468.333z" data-original="#E3E7F2" class=""/>
			<rect x="75.8" y="115.267" style="fill:#E3E7F2;" width="358.4" height="250.667" data-original="#E3E7F2" class=""/>
			<rect x="67.267" y="115.267" style="fill:#E3E7F2;" width="341.333" height="250.667" data-original="#E3E7F2" class=""/>
		</g>
		<path style="fill:#214875" d="M127,203.8h102.4c4.713,0,8.533,3.821,8.533,8.533v59.733c0,4.713-3.821,8.533-8.533,8.533H127    c-4.713,0-8.533-3.821-8.533-8.533v-59.733C118.467,207.621,122.287,203.8,127,203.8z" data-original="#7FACFA" class="" data-old_color="#7FACFA"/>
		<path style="fill:#467CAA" d="M127,203.8h76.8c4.713,0,8.533,3.821,8.533,8.533v59.733c0,4.713-3.82,8.533-8.533,8.533H127    c-4.713,0-8.533-3.821-8.533-8.533v-59.733C118.467,207.621,122.287,203.8,127,203.8z" data-original="#A4C2F7" class="active-path" data-old_color="#A4C2F7"/>
		<g>
			<path style="fill:#E3E7F2;" d="M280.6,203.8H383c4.713,0,8.533,3.821,8.533,8.533v153.6H272.067v-153.6     C272.067,207.621,275.887,203.8,280.6,203.8z" data-original="#E3E7F2" class=""/>
			<polygon style="fill:#E3E7F2;" points="331.8,237.933 306.2,272.067 357.4,272.067    " data-original="#E3E7F2" class=""/>
			<rect x="306.2" y="272.067" style="fill:#E3E7F2;" width="51.2" height="34.133" data-original="#E3E7F2" class=""/>
		</g>
		
			<linearGradient id="SVGID_1_" gradientUnits="userSpaceOnUse" x1="-49.6659" y1="651.1179" x2="-49.0948" y2="649.5054" gradientTransform="matrix(409.6 0 0 -145.0668 20481.1992 94452.0625)">
			<stop offset="0" style="stop-color:#D4E1F4"/>
			<stop offset="0.1717" style="stop-color:#D4E1F4"/>
			<stop offset="0.2" style="stop-color:#D4E1F4"/>
			<stop offset="0.2001" style="stop-color:#DAE4F4"/>
			<stop offset="0.2007" style="stop-color:#EBEBF4"/>
			<stop offset="0.2014" style="stop-color:#F6F1F4"/>
			<stop offset="0.2023" style="stop-color:#FDF4F4"/>
			<stop offset="0.205" style="stop-color:#FFF5F4"/>
			<stop offset="0.2522" style="stop-color:#FFF5F4"/>
			<stop offset="0.26" style="stop-color:#FFF5F4"/>
			<stop offset="0.26" style="stop-color:#D4E1F4"/>
			<stop offset="0.3974" style="stop-color:#D4E1F4"/>
			<stop offset="0.42" style="stop-color:#D4E1F4"/>
			<stop offset="0.4201" style="stop-color:#DAE4F4"/>
			<stop offset="0.4207" style="stop-color:#EBEBF4"/>
			<stop offset="0.4214" style="stop-color:#F6F1F4"/>
			<stop offset="0.4223" style="stop-color:#FDF4F4"/>
			<stop offset="0.425" style="stop-color:#FFF5F4"/>
			<stop offset="0.4894" style="stop-color:#FFF5F4"/>
			<stop offset="0.5" style="stop-color:#FFF5F4"/>
			<stop offset="0.5" style="stop-color:#F9F2F4"/>
			<stop offset="0.5001" style="stop-color:#E8EBF4"/>
			<stop offset="0.5003" style="stop-color:#DDE5F4"/>
			<stop offset="0.5005" style="stop-color:#D6E2F4"/>
			<stop offset="0.501" style="stop-color:#D4E1F4"/>
			<stop offset="0.7062" style="stop-color:#D4E1F4"/>
			<stop offset="0.74" style="stop-color:#D4E1F4"/>
			<stop offset="0.741" style="stop-color:#FFF5F4"/>
			<stop offset="0.8346" style="stop-color:#FFF5F4"/>
			<stop offset="0.85" style="stop-color:#FFF5F4"/>
			<stop offset="0.851" style="stop-color:#D4E1F4"/>
		</linearGradient>
		
		<g>
			<path style="fill:#214875" d="M459.8,84.333v51.2c-0.028,9.414-7.652,17.039-17.067,17.067h-10.837     c1.506-2.592,2.301-5.536,2.304-8.533v-51.2L340.589,7.533l27.307,0c4.219-0.014,8.293,1.537,11.435,4.352L459.8,84.333z" data-original="#7FACFA" class="" data-old_color="#7FACFA"/>
			<rect x="297.667" y="434.2" style="fill:#214875" width="25.6" height="34.133" data-original="#7FACFA" class="" data-old_color="#7FACFA"/>
			<path style="fill:#214875" d="M391.533,476.867v17.067c-0.014,4.707-3.826,8.519-8.533,8.533h-25.6     c4.707-0.014,8.519-3.826,8.533-8.533v-17.067c-0.014-4.707-3.826-8.519-8.533-8.533H383     C387.707,468.347,391.519,472.16,391.533,476.867z" data-original="#7FACFA" class="" data-old_color="#7FACFA"/>
		</g>
		<g>
			<path style="fill:#FFFFFF;" d="M142.104,7.533l25.6,0c-4.219-0.013-8.293,1.537-11.435,4.352L75.8,84.333h-8.533     c-9.054-0.003-17.737,3.593-24.139,9.995c-6.402,6.402-9.997,15.085-9.995,24.139v281.6c-0.002,9.053,3.593,17.737,9.995,24.139     c6.402,6.402,15.085,9.997,24.139,9.995h-25.6c-9.053,0.002-17.737-3.593-24.139-9.995c-6.402-6.402-9.997-15.085-9.995-24.139     v-281.6c-0.003-9.054,3.593-17.737,9.995-24.139c6.402-6.402,15.085-9.997,24.139-9.995H50.2l80.469-72.448     C133.811,9.07,137.885,7.52,142.104,7.533z" data-original="#FFFFFF"/>
			<path style="fill:#FFFFFF;" d="M144.067,476.867v17.067c0.014,4.707,3.826,8.519,8.533,8.533H127     c-4.707-0.014-8.519-3.826-8.533-8.533v-17.067c0.014-4.707,3.826-8.519,8.533-8.533h25.6     C147.893,468.347,144.081,472.16,144.067,476.867z" data-original="#FFFFFF"/>
			<rect x="186.733" y="434.2" style="fill:#FFFFFF;" width="25.6" height="34.133" data-original="#FFFFFF"/>
		</g>
	</g>
	<g>
		<polygon style="fill:#FFFFFF;" points="17.067,119.467 17.067,230.4 17.067,366.933 0,366.933 0,230.4 0,119.467   " data-original="#FFFFFF"/>
		<g>
			<path style="fill:#1B2635" d="M8.533,196.267c2.259-0.034,4.422-0.918,6.059-2.475c3.3-3.365,3.3-8.752,0-12.117l-1.279-1.025     c-0.476-0.324-0.993-0.583-1.538-0.771c-0.484-0.246-1.003-0.417-1.538-0.509c-0.563-0.096-1.133-0.153-1.704-0.171     c-2.259,0.031-4.423,0.915-6.059,2.475c-3.222,3.397-3.222,8.721,0,12.117c0.815,0.771,1.77,1.379,2.813,1.792     C6.314,196.022,7.417,196.254,8.533,196.267z" data-original="#428DFF" class="" data-old_color="#428DFF"/>
			<path style="fill:#1B2635" d="M469.333,76.8h-5.259L386.008,6.512c-4.71-4.199-10.802-6.518-17.112-6.512H143.104     c-6.324-0.003-12.428,2.326-17.142,6.542L47.926,76.8h-5.259C19.114,76.828,0.028,95.914,0,119.467V153.6     c0,4.713,3.821,8.533,8.533,8.533s8.533-3.821,8.533-8.533v-34.133c0.015-14.132,11.468-25.585,25.6-25.6v42.667     c0.015,14.132,11.468,25.585,25.6,25.6V358.4h-51.2V221.867c0-4.713-3.821-8.533-8.533-8.533S0,217.154,0,221.867v179.2     c0.028,23.553,19.114,42.639,42.667,42.667H179.2V460.8h-59.733c-4.713,0-8.533,3.821-8.533,8.533v34.133     c0,4.713,3.821,8.533,8.533,8.533h273.067c4.713,0,8.533-3.821,8.533-8.533v-34.133c0-4.713-3.82-8.533-8.533-8.533H332.8     v-17.067h136.533c23.553-0.028,42.639-19.114,42.667-42.667v-281.6C511.972,95.914,492.886,76.828,469.333,76.8z      M494.933,119.467V358.4h-51.2V162.133c14.132-0.015,25.585-11.468,25.6-25.6V93.867     C483.465,93.882,494.918,105.335,494.933,119.467z M59.733,136.533V89.132l77.617-69.878c1.577-1.422,3.63-2.203,5.754-2.188     h225.792c2.11-0.017,4.151,0.752,5.725,2.158l77.646,69.907v47.402c-0.006,4.71-3.823,8.527-8.533,8.533h-17.067     c-4.71-0.006-8.527-3.823-8.533-8.533V102.4c0-4.713-3.82-8.533-8.533-8.533s-8.533,3.821-8.533,8.533v34.133     c-0.006,4.71-3.823,8.527-8.533,8.533h-17.067c-4.71-0.006-8.527-3.823-8.533-8.533V93.867c0-4.713-3.82-8.533-8.533-8.533     s-8.533,3.821-8.533,8.533v42.667c-0.006,4.71-3.823,8.527-8.533,8.533h-17.067c-4.71-0.006-8.527-3.823-8.533-8.533V102.4     c0-4.713-3.821-8.533-8.533-8.533s-8.533,3.821-8.533,8.533v34.133c-0.006,4.71-3.823,8.527-8.533,8.533h-17.067     c-4.71-0.006-8.527-3.823-8.533-8.533v-51.2c0-4.713-3.821-8.533-8.533-8.533c-4.713,0-8.533,3.821-8.533,8.533v51.2     c-0.006,4.71-3.823,8.527-8.533,8.533h-17.067c-4.71-0.006-8.527-3.823-8.533-8.533V102.4c0-4.713-3.82-8.533-8.533-8.533     s-8.533,3.821-8.533,8.533v34.133c-0.006,4.71-3.823,8.527-8.533,8.533h-17.067c-4.71-0.006-8.527-3.823-8.533-8.533V93.867     c0-4.713-3.821-8.533-8.533-8.533c-4.713,0-8.533,3.821-8.533,8.533v42.667c-0.006,4.71-3.823,8.527-8.533,8.533h-17.067     c-4.71-0.006-8.527-3.823-8.533-8.533V102.4c0-4.713-3.821-8.533-8.533-8.533c-4.713,0-8.533,3.821-8.533,8.533v34.133     c-0.006,4.71-3.823,8.527-8.533,8.533H68.267C63.556,145.061,59.739,141.244,59.733,136.533z M85.333,162.133     c6.319-0.02,12.404-2.394,17.067-6.658c4.663,4.265,10.748,6.639,17.067,6.658h17.067c6.319-0.02,12.404-2.394,17.067-6.658     c4.663,4.265,10.748,6.639,17.067,6.658h17.067c6.319-0.02,12.404-2.394,17.067-6.658c4.663,4.265,10.748,6.639,17.067,6.658     h17.067c6.319-0.02,12.404-2.394,17.067-6.658c4.663,4.265,10.748,6.639,17.067,6.658h17.067     c6.319-0.02,12.404-2.394,17.067-6.658c4.663,4.265,10.748,6.639,17.067,6.658h17.067c6.319-0.02,12.404-2.394,17.067-6.658     c4.663,4.265,10.748,6.639,17.067,6.658h17.067c6.319-0.02,12.404-2.394,17.067-6.658c4.663,4.265,10.748,6.639,17.067,6.658     V358.4h-25.6V204.8c0-4.713-3.82-8.533-8.533-8.533H273.067c-4.713,0-8.533,3.82-8.533,8.533v153.6h-179.2V162.133z M384,358.4     H281.6V213.333H384V358.4z M384,494.933H128v-17.067h256V494.933z M315.733,460.8H196.267v-17.067h119.467V460.8z      M469.333,426.667H42.667c-14.132-0.015-25.585-11.468-25.6-25.6v-25.6h477.867v25.6     C494.918,415.199,483.465,426.651,469.333,426.667z" data-original="#428DFF" class="" data-old_color="#428DFF"/>
			<path style="fill:#1B2635" d="M238.933,196.267H119.467c-4.713,0-8.533,3.82-8.533,8.533v76.8c0,4.713,3.821,8.533,8.533,8.533     h119.467c4.713,0,8.533-3.821,8.533-8.533v-76.8C247.467,200.087,243.646,196.267,238.933,196.267z M230.4,273.067H128v-59.733     h102.4V273.067z" data-original="#428DFF" class="" data-old_color="#428DFF"/>
			<path style="fill:#1B2635" d="M307.2,315.733h51.2c4.713,0,8.533-3.821,8.533-8.533v-34.133c0-0.099-0.053-0.182-0.057-0.281     c-0.022-0.999-0.222-1.986-0.589-2.915c-0.071-0.176-0.186-0.317-0.269-0.487c-0.217-0.504-0.483-0.986-0.794-1.439l-25.6-34.133     c-1.678-2.042-4.182-3.225-6.825-3.225s-5.147,1.183-6.825,3.225l-25.6,34.133c-0.311,0.452-0.577,0.934-0.794,1.439     c-0.083,0.171-0.197,0.311-0.269,0.487c-0.367,0.929-0.566,1.916-0.589,2.915c-0.003,0.098-0.056,0.181-0.056,0.281V307.2     C298.667,311.913,302.487,315.733,307.2,315.733z M349.867,298.667h-34.133V281.6h34.133V298.667z M332.8,253.154l8.533,11.379     h-17.067L332.8,253.154z" data-original="#428DFF" class="" data-old_color="#428DFF"/>
			<path style="fill:#1B2635" d="M238.933,307.2H119.467c-4.713,0-8.533,3.821-8.533,8.533s3.821,8.533,8.533,8.533h119.467     c4.713,0,8.533-3.82,8.533-8.533S243.646,307.2,238.933,307.2z" data-original="#428DFF" class="" data-old_color="#428DFF"/>
		</g>
	</g>
</g></g> </svg>
