<svg width="624" height="702" viewBox="0 0 624 702" version="1.1" xmlns="http://www.w3.org/2000/svg" xmlns:xlink="http://www.w3.org/1999/xlink">
<title>Group</title>
<desc>Created using Figma</desc>
<g id="Canvas" transform="translate(347 360)">
<g id="Group">
<g id="Vector">
<use xlink:href="#path0_stroke" transform="translate(-330.487 -210.857)" fill="#FFFFFF"/>
</g>
<g id="Vector">
<use xlink:href="#path1_stroke" transform="translate(-332 -210.327)" fill="#FFFFFF"/>
</g>
<g id="Vector">
<use xlink:href="#path2_stroke" transform="translate(-163.258 -344)" fill="#FFFFFF"/>
</g>
<g id="Vector">
<use xlink:href="#path3_fill" transform="translate(-254.99 -298.182)" fill="#94EC2C"/>
</g>
</g>
</g>
<defs>
<path id="path0_stroke" d="M 83.4343 198.768L 93.2641 187.437L 93.2569 187.431L 93.2496 187.425L 83.4343 198.768ZM 8.15398 26.7771L 20.3384 35.5258L 20.5658 35.2091L 20.7764 34.8811L 8.15398 26.7771ZM 189.841 13.5874L 194.977 -0.505644L 194.618 -0.636724L 194.252 -0.74929L 189.841 13.5874ZM 421.341 126.826L 430.065 114.624L 429.917 114.518L 429.766 114.416L 421.341 126.826ZM 509.294 198.768L 520.423 188.71L 520.105 188.359L 519.766 188.029L 509.294 198.768ZM 581.228 372.285L 592.441 382.249L 592.687 381.972L 592.919 381.683L 581.228 372.285ZM 401.533 382.21L 405.881 367.854L 405.881 367.854L 401.533 382.21ZM 178.769 257.027C 143.139 230.897 102.893 195.791 93.2641 187.437L 73.6045 210.098C 83.073 218.313 124.241 254.24 161.027 281.219L 178.769 257.027ZM 93.2496 187.425C 61.3953 159.861 37.8473 127.258 25.2723 98.074C 18.9828 83.4772 15.6558 70.2427 15.0879 59.2648C 14.5177 48.2432 16.7507 40.5225 20.3384 35.5258L -4.03043 18.0283C -12.793 30.2321 -15.6701 45.3893 -14.872 60.8148C -14.0717 76.2839 -9.55217 93.0656 -2.27893 109.945C 12.2716 143.714 38.7141 179.907 73.6191 210.111L 93.2496 187.425ZM 20.7764 34.8811C 22.7534 31.8017 28.0454 27.453 38.8029 23.5216C 49.1605 19.7363 62.8065 16.9969 78.7448 15.7503C 110.613 13.2576 149.566 16.8896 185.43 27.9242L 194.252 -0.74929C 154.697 -12.9196 111.953 -16.9388 76.4055 -14.1584C 58.6361 -12.7685 42.1447 -9.64032 28.5053 -4.65567C 15.2657 0.182856 2.70095 7.50644 -4.4684 18.673L 20.7764 34.8811ZM 184.704 27.6805C 281.286 62.8823 327.04 80.9338 412.915 139.237L 429.766 114.416C 340.939 54.1093 292.557 35.0601 194.977 -0.505644L 184.704 27.6805ZM 412.617 139.029C 451.85 167.078 460.672 172.305 498.822 209.507L 519.766 188.029C 479.946 149.197 469.628 142.91 430.065 114.624L 412.617 139.029ZM 498.165 208.825C 509.836 221.739 537.408 250.56 557.043 282.66C 566.861 298.711 574.021 314.541 576.522 328.728C 578.961 342.555 576.864 353.772 569.537 362.887L 592.919 381.683C 607.085 364.061 609.562 343.339 606.067 323.518C 602.635 304.057 593.354 284.53 582.635 267.005C 561.195 231.954 531.307 200.754 520.423 188.71L 498.165 208.825ZM 570.015 362.322C 551.472 383.19 511.437 399.821 405.881 367.854L 397.185 396.566C 505.312 429.312 561.533 417.032 592.441 382.249L 570.015 362.322ZM 405.881 367.854C 300.961 336.079 231.488 294.218 178.546 256.867L 161.251 281.38C 216.064 320.052 288.421 363.627 397.185 396.566L 405.881 367.854Z"/>
<path id="path1_stroke" d="M 190.083 383.421L 185.181 369.244L 185.173 369.247L 185.164 369.25L 190.083 383.421ZM 3.5405 362.64L 17.2111 356.466L 17.0506 356.111L 16.8718 355.764L 3.5405 362.64ZM 82.9644 198.651L 73.3249 187.158L 73.0316 187.404L 72.7512 187.665L 82.9644 198.651ZM 296.752 54.7227L 290.543 41.0681L 290.378 41.1434L 290.214 41.2227L 296.752 54.7227ZM 403.012 14.4999L 399.863 -0.165844L 399.4 -0.0664719L 398.945 0.0618819L 403.012 14.4999ZM 589.203 38.9433L 603.439 34.218L 603.323 33.8664L 603.189 33.521L 589.203 38.9433ZM 507.947 199.574L 497.686 188.633L 497.686 188.633L 507.947 199.574ZM 288.181 329.966C 247.744 347.767 197.228 365.079 185.181 369.244L 194.984 397.597C 206.83 393.502 258.518 375.802 300.268 357.424L 288.181 329.966ZM 185.164 369.25C 145.373 383.063 105.374 387.161 73.8221 383.463C 58.041 381.613 44.9213 377.878 35.1349 372.882C 25.3099 367.866 19.7431 362.073 17.2111 356.466L -10.1301 368.813C -3.94628 382.507 7.73833 392.579 21.4941 399.602C 35.2883 406.644 52.0784 411.12 70.3298 413.259C 106.843 417.538 151.399 412.727 195.002 397.591L 185.164 369.25ZM 16.8718 355.764C 15.1937 352.51 14.0747 345.75 16.05 334.463C 17.9519 323.597 22.4036 310.404 29.2938 295.973C 43.0704 267.118 65.6919 235.189 93.1775 209.637L 72.7512 187.665C 42.4378 215.846 17.5869 250.864 2.22115 283.047C -5.4599 299.135 -10.9969 314.985 -13.5008 329.291C -15.9313 343.178 -15.8732 357.723 -9.79079 369.516L 16.8718 355.764ZM 92.6039 210.143C 171.372 144.076 209.877 113.465 303.291 68.2226L 290.214 41.2227C 193.589 88.0205 152.907 120.408 73.3249 187.158L 92.6039 210.143ZM 302.961 68.3772C 346.861 48.4151 355.798 43.3849 407.08 28.9379L 398.945 0.0618819C 345.416 15.142 334.813 20.9377 290.543 41.0681L 302.961 68.3772ZM 406.161 29.1656C 423.177 25.5119 461.914 16.037 499.521 15.0776C 518.325 14.5979 535.609 16.3106 549.14 21.2362C 562.327 26.0364 570.989 33.4599 575.217 44.3656L 603.189 33.521C 595.015 12.4385 578.313 -0.0701774 559.402 -6.95417C 540.835 -13.7129 519.287 -15.4364 498.756 -14.9126C 457.689 -13.8649 415.733 -3.57333 399.863 -0.165844L 406.161 29.1656ZM 574.967 43.6687C 583.763 70.1706 578.14 113.174 497.686 188.633L 518.209 210.515C 600.622 133.218 618.097 78.3779 603.439 34.218L 574.967 43.6687ZM 497.686 188.633C 417.716 263.638 346.738 302.892 287.93 330.08L 300.519 357.31C 361.406 329.162 435.31 288.267 518.209 210.515L 497.686 188.633Z"/>
<path id="path2_stroke" d="M 251.909 408.526L 266.82 410.158L 271.245 369.72L 241.626 397.605L 251.909 408.526ZM 234.23 518.607L 219.502 515.761L 219.5 515.771L 219.498 515.781L 234.23 518.607ZM 122.969 669.817L 124.456 654.891L 124.068 654.852L 123.678 654.834L 122.969 669.817ZM 20.7059 519.018L 5.93273 521.616L 5.99902 521.993L 6.08444 522.366L 20.7059 519.018ZM 2.9931 261.851L -11.9365 260.399L -11.9541 260.58L -11.9673 260.762L 2.9931 261.851ZM 21.3011 149.687L 7.02535 145.082L 6.88026 145.532L 6.76377 145.99L 21.3011 149.687ZM 135.557 0.612643L 138.582 -14.0791L 138.219 -14.1538L 137.853 -14.2105L 135.557 0.612643ZM 251.908 408.527L 236.969 407.169L 233.388 446.564L 262.19 419.448L 251.908 408.527ZM 236.998 406.895C 232.19 450.825 221.92 503.245 219.502 515.761L 248.957 521.452C 251.336 509.141 261.856 455.515 266.82 410.158L 236.998 406.895ZM 219.498 515.781C 211.561 557.159 195.109 593.861 176.131 619.347C 166.639 632.094 156.845 641.592 147.626 647.572C 138.37 653.576 130.573 655.501 124.456 654.891L 121.481 684.743C 136.431 686.233 150.995 681.146 163.952 672.741C 176.946 664.312 189.215 652.005 200.192 637.265C 222.153 607.775 240.265 566.771 248.961 521.432L 219.498 515.781ZM 123.678 654.834C 120.026 654.661 113.616 652.252 104.832 644.898C 96.3761 637.817 87.1811 627.365 78.1322 614.181C 60.0394 587.819 43.7067 552.257 35.3273 515.669L 6.08444 522.366C 15.3254 562.716 33.2173 601.754 53.3974 631.157C 63.485 645.855 74.4385 658.577 85.5733 667.9C 96.3812 676.949 109.005 684.173 122.259 684.8L 123.678 654.834ZM 35.4791 516.419C 17.6645 415.149 10.4163 366.486 17.9535 262.94L -11.9673 260.762C -19.7635 367.865 -12.0659 419.301 5.93273 521.616L 35.4791 516.419ZM 17.9227 263.302C 22.5902 215.291 22.7039 205.033 35.8384 153.384L 6.76377 145.99C -6.94587 199.9 -7.22977 211.984 -11.9365 260.399L 17.9227 263.302ZM 35.5768 154.291C 40.9205 137.725 52.0863 99.428 70.0592 66.369C 79.0465 49.8381 89.1717 35.7207 100.202 26.461C 110.953 17.4366 121.709 13.6463 133.26 15.4358L 137.853 -14.2105C 115.51 -17.6719 96.3279 -9.45573 80.9138 3.48376C 65.7799 16.188 53.5145 33.992 43.7025 52.0399C 24.077 88.1386 12.0096 129.63 7.02535 145.082L 35.5768 154.291ZM 132.531 15.3044C 159.868 20.9338 194.287 47.3022 219.39 154.733L 248.603 147.907C 222.89 37.8678 184.15 -4.69509 138.582 -14.0791L 132.531 15.3044ZM 219.39 154.733C 244.341 261.513 242.836 342.629 236.969 407.169L 266.846 409.885C 272.92 343.065 274.467 258.596 248.603 147.907L 219.39 154.733ZM 262.19 419.448L 262.191 419.448L 241.626 397.605L 241.626 397.606L 262.19 419.448Z"/>
<path id="path3_fill" fill-rule="evenodd" d="M 220.828 332.289C 245.498 332.289 265.497 312.284 265.497 287.607C 265.497 262.929 245.498 242.924 220.828 242.924C 196.158 242.924 176.159 262.929 176.159 287.607C 176.159 312.284 196.158 332.289 220.828 332.289ZM 22.649 509.762C 35.1576 509.762 45.2981 499.619 45.2981 487.106C 45.2981 474.594 35.1576 464.45 22.649 464.45C 10.1405 464.45 0 474.594 0 487.106C 0 499.619 10.1405 509.762 22.649 509.762ZM 488.213 377.602C 500.721 377.602 510.862 367.458 510.862 354.946C 510.862 342.433 500.721 332.289 488.213 332.289C 475.704 332.289 465.563 342.433 465.563 354.946C 465.563 367.458 475.704 377.602 488.213 377.602ZM 142.815 45.3122C 155.323 45.3122 165.464 35.1686 165.464 22.6561C 165.464 10.1436 155.323 0 142.815 0C 130.306 0 120.166 10.1436 120.166 22.6561C 120.166 35.1686 130.306 45.3122 142.815 45.3122Z"/>
</defs>
</svg>
