<?xml version="1.0"?>
<svg xmlns="http://www.w3.org/2000/svg" xmlns:xlink="http://www.w3.org/1999/xlink" version="1.1" id="Capa_1" x="0px" y="0px" viewBox="0 0 512.01 512.01" style="enable-background:new 0 0 512.01 512.01;" xml:space="preserve" width="512px" height="512px" class=""><g><g transform="translate(0 -1)">
	<g transform="translate(1 1)">
		<rect x="186.739" y="413.535" style="fill:#E3E7F2" width="136.533" height="77.397" data-original="#E3E7F2" class="" data-old_color="#D4E1F4"/>
		<path style="fill:#3FC6E5" d="M41.672,85.343h426.667c18.851,0,34.133,15.282,34.133,34.133v281.6    c0,18.851-15.282,34.133-34.133,34.133H41.672c-18.851,0-34.133-15.282-34.133-34.133v-281.6    C7.539,100.625,22.821,85.343,41.672,85.343z" data-original="#7FACFA" class="" data-old_color="#7FACFA"/>
		<g>
			<path style="fill:#E3E7F2" d="M41.672,85.343h401.067c18.851,0,34.133,15.282,34.133,34.133v281.6     c0,18.851-15.282,34.133-34.133,34.133H41.672c-18.851,0-34.133-15.282-34.133-34.133v-281.6     C7.539,100.625,22.821,85.343,41.672,85.343z" data-original="#E3E7F2" class="" data-old_color="#D4E1F4"/>
			<path style="fill:#E3E7F2" d="M127.005,469.343h256c4.713,0,8.533,3.82,8.533,8.533v17.067c0,4.713-3.821,8.533-8.533,8.533     h-256c-4.713,0-8.533-3.82-8.533-8.533v-17.067C118.472,473.164,122.292,469.343,127.005,469.343z" data-original="#E3E7F2" class="" data-old_color="#D4E1F4"/>
		</g>
		<path style="fill:#3FC6E5" d="M502.472,119.477v247.467H7.539l0-247.467c-0.003-9.054,3.593-17.737,9.995-24.139    c6.402-6.402,15.085-9.997,24.139-9.995h426.667c9.054-0.003,17.737,3.593,24.139,9.995    C498.879,101.74,502.475,110.423,502.472,119.477z" data-original="#7FACFA" class="" data-old_color="#7FACFA"/>
		<path style="fill:#E3E7F2" d="M476.872,119.477v247.467H7.539l0-247.467c-0.003-9.054,3.593-17.737,9.995-24.139    c6.402-6.402,15.085-9.997,24.139-9.995h401.067c9.054-0.003,17.737,3.593,24.139,9.995    C473.279,101.74,476.875,110.423,476.872,119.477z" data-original="#E3E7F2" class="" data-old_color="#D4E1F4"/>
		
			<linearGradient id="SVGID_1_" gradientUnits="userSpaceOnUse" x1="-49.7818" y1="652.4032" x2="-49.1312" y2="650.5471" gradientTransform="matrix(494.9336 0 0 -173.4827 24702.6094 113340.3594)">
			<stop offset="0" style="stop-color:#D4E1F4"/>
			<stop offset="0.1717" style="stop-color:#D4E1F4"/>
			<stop offset="0.2" style="stop-color:#D4E1F4"/>
			<stop offset="0.2001" style="stop-color:#DAE4F4"/>
			<stop offset="0.2007" style="stop-color:#EBEBF4"/>
			<stop offset="0.2014" style="stop-color:#F6F1F4"/>
			<stop offset="0.2023" style="stop-color:#FDF4F4"/>
			<stop offset="0.205" style="stop-color:#FFF5F4"/>
			<stop offset="0.2522" style="stop-color:#FFF5F4"/>
			<stop offset="0.26" style="stop-color:#FFF5F4"/>
			<stop offset="0.26" style="stop-color:#D4E1F4"/>
			<stop offset="0.3974" style="stop-color:#D4E1F4"/>
			<stop offset="0.42" style="stop-color:#D4E1F4"/>
			<stop offset="0.4201" style="stop-color:#DAE4F4"/>
			<stop offset="0.4207" style="stop-color:#EBEBF4"/>
			<stop offset="0.4214" style="stop-color:#F6F1F4"/>
			<stop offset="0.4223" style="stop-color:#FDF4F4"/>
			<stop offset="0.425" style="stop-color:#FFF5F4"/>
			<stop offset="0.4894" style="stop-color:#FFF5F4"/>
			<stop offset="0.5" style="stop-color:#FFF5F4"/>
			<stop offset="0.5" style="stop-color:#F9F2F4"/>
			<stop offset="0.5001" style="stop-color:#E8EBF4"/>
			<stop offset="0.5003" style="stop-color:#DDE5F4"/>
			<stop offset="0.5005" style="stop-color:#D6E2F4"/>
			<stop offset="0.501" style="stop-color:#D4E1F4"/>
			<stop offset="0.7062" style="stop-color:#D4E1F4"/>
			<stop offset="0.74" style="stop-color:#D4E1F4"/>
			<stop offset="0.741" style="stop-color:#FFF5F4"/>
			<stop offset="0.8346" style="stop-color:#FFF5F4"/>
			<stop offset="0.85" style="stop-color:#FFF5F4"/>
			<stop offset="0.851" style="stop-color:#D4E1F4"/>
		</linearGradient>
		
		<path style="fill:#3FC6E5" d="M342.216,115.466l-77.227-75.435c0.841-0.841,1.724-1.638,2.645-2.389    c24.917-22.101,65.877-27.477,89.088-28.757c10.752-0.597,17.664-0.256,17.664-0.256S377.715,80.735,342.216,115.466z" data-original="#7FACFA" class="" data-old_color="#7FACFA"/>
		<path style="fill:#E3E7F2" d="M361.16,8.543c-1.877,24.064-8.533,62.464-31.573,84.992l-57.515-56.235    C296.989,15.199,337.949,9.823,361.16,8.543z" data-original="#E3E7F2" class="" data-old_color="#D4E1F4"/>
		<polygon style="fill:#3FC6E5" points="342.984,114.698 264.989,190.901 194.163,260.106 171.293,237.749 116.936,184.671     187.763,115.466 264.563,40.458 265.757,39.263   " data-original="#7FACFA" class="" data-old_color="#7FACFA"/>
		<g>
			<polygon style="fill:#E3E7F2" points="323.272,95.754 245.277,171.957 175.645,239.967 121.288,186.89 192.115,117.685      268.915,42.677    " data-original="#E3E7F2" class="" data-old_color="#D4E1F4"/>
			<path style="fill:#E3E7F2" d="M258.54,159.497c-10.765,10.415-27.851,10.415-38.616,0c-5.111-4.943-7.997-11.748-7.997-18.859     c0-7.11,2.886-13.916,7.997-18.859c10.765-10.415,27.851-10.415,38.616,0c5.111,4.943,7.997,11.748,7.997,18.859     C266.537,147.748,263.651,154.554,258.54,159.497z" data-original="#E3E7F2" class="" data-old_color="#D4E1F4"/>
		</g>
		<polygon style="fill:#3FC6E5" points="187.763,115.466 116.936,184.671 84.765,216.074 7.539,216.074 97.651,128.095   " data-original="#A4C2F7" class="" data-old_color="#A4C2F7"/>
		<polygon style="fill:#3FC6E5" points="161.992,291.509 110.536,304.053 109.341,302.943 73.075,267.53 71.88,266.335     72.563,263.605 84.765,216.074 141.853,271.882   " data-original="#7FACFA" class="" data-old_color="#7FACFA"/>
		<polygon style="fill:#3FC6E5" points="264.989,190.901 252.104,278.965 161.992,366.943 161.992,291.509 194.163,260.106   " data-original="#A4C2F7" class="" data-old_color="#A4C2F7"/>
		<polygon style="fill:#3FC6E5" points="194.163,260.106 161.992,291.509 141.853,271.882 84.765,216.074 86.472,214.367     116.936,184.671 175.133,241.503   " data-original="#7FACFA" class="" data-old_color="#7FACFA"/>
		<g>
			<polygon style="fill:#76DFEE" points="144.669,271.199 141.853,271.882 93.213,283.743 92.019,282.634 72.563,263.605      84.765,216.074 86.472,214.367    " data-original="#D4E1F4" class="" data-old_color="#76dfee"/>
			<polygon style="fill:#76DFEE" points="175.133,241.503 144.669,271.199 86.472,214.367 116.936,184.671    " data-original="#D4E1F4" class="" data-old_color="#76dfee"/>
			<path style="fill:#76DFEE" d="M109.341,302.943c-1.257,2.799-3.055,5.322-5.291,7.424     c-10.667,10.411-57.856,18.859-57.856,18.859s8.619-46.165,19.285-56.576c2.177-2.181,4.756-3.92,7.595-5.12L109.341,302.943z" data-original="#D4E1F4" class="" data-old_color="#76dfee"/>
		</g>
		<g>
			<rect x="297.672" y="435.21" style="fill:#3FC6E5" width="25.6" height="34.133" data-original="#7FACFA" class="" data-old_color="#7FACFA"/>
			<path style="fill:#3FC6E5" d="M391.539,477.877v17.067c-0.014,4.707-3.826,8.519-8.533,8.533h-25.6     c4.707-0.014,8.519-3.826,8.533-8.533v-17.067c-0.014-4.707-3.826-8.519-8.533-8.533h25.6     C387.712,469.357,391.525,473.17,391.539,477.877z" data-original="#7FACFA" class="" data-old_color="#7FACFA"/>
		</g>
	</g>
	<g transform="translate(1 11)">
		<path style="fill:#FFFFFF;" d="M33.139,391.077c-0.002,9.053,3.593,17.737,9.995,24.139c6.402,6.402,15.085,9.997,24.139,9.995    h-25.6c-9.053,0.002-17.737-3.593-24.139-9.995c-6.402-6.402-9.997-15.085-9.995-24.139v-281.6    c-0.003-9.054,3.593-17.737,9.995-24.139c6.402-6.402,15.085-9.997,24.139-9.995h25.6c-9.054-0.003-17.737,3.593-24.139,9.995    c-6.402,6.402-9.997,15.085-9.995,24.139V391.077z" data-original="#FFFFFF"/>
		<path style="fill:#FFFFFF;" d="M144.072,467.877v17.067c0.014,4.707,3.826,8.519,8.533,8.533h-25.6    c-4.707-0.014-8.519-3.826-8.533-8.533v-17.067c0.014-4.707,3.826-8.519,8.533-8.533h25.6    C147.898,459.357,144.086,463.17,144.072,467.877z" data-original="#FFFFFF"/>
		<rect x="186.739" y="425.21" style="fill:#FFFFFF;" width="25.6" height="34.133" data-original="#FFFFFF"/>
	</g>
	<g>
		<polygon style="fill:#FFFFFF;" points="0.005,367.943 0.005,257.01 0.005,217.074 17.072,217.074 17.072,257.01 17.072,367.943       " data-original="#FFFFFF"/>
		<g>
			<path style="fill:#287AD2" d="M5.297,307.531c0.484,0.246,1.002,0.417,1.537,0.508c0.563,0.096,1.133,0.153,1.704,0.171     c2.259-0.031,4.423-0.915,6.059-2.475c3.221-3.397,3.221-8.72,0-12.117c-0.815-0.771-1.77-1.379-2.813-1.792     c-1.027-0.438-2.13-0.67-3.246-0.683c-2.259,0.034-4.422,0.918-6.059,2.475c-3.3,3.365-3.3,8.752,0,12.117l1.279,1.025     C4.235,307.084,4.752,307.343,5.297,307.531z" data-original="#428DFF" class="active-path" data-old_color="#287ad2"/>
			<path style="fill:#287AD2" d="M469.339,77.81h-94.481c6.605-22.242,9.661-45.386,9.056-68.579     c-0.206-4.408-3.738-7.932-8.146-8.129c-3.15-0.129-77.992-3.029-115.754,33.854L216.138,77.81H42.672     C19.119,77.838,0.033,96.924,0.005,120.477v96.596l0.001,0.002H0.005v48.469c0,4.713,3.821,8.533,8.533,8.533     s8.533-3.82,8.533-8.533v-39.938h57.704l-9.795,38.27c-1.593,1.096-3.091,2.323-4.48,3.668     c-12.004,11.729-20.212,52.966-21.733,61.117c-0.466,2.494,0.203,5.066,1.824,7.018c1.621,1.952,4.027,3.081,6.564,3.082     c0.503,0.001,1.005-0.044,1.5-0.133c8.317-1.483,50.425-9.475,62.379-21.15c1.385-1.363,2.652-2.841,3.789-4.418l39.644-9.68     v56.031H17.072v-25.6c0-4.713-3.821-8.533-8.533-8.533s-8.533,3.821-8.533,8.533v68.267     c0.028,23.553,19.114,42.639,42.667,42.667h136.533v17.067h-59.733c-4.713,0-8.533,3.82-8.533,8.533v34.133     c0,4.713,3.821,8.533,8.533,8.533h273.067c4.713,0,8.533-3.82,8.533-8.533v-34.133c0-4.713-3.82-8.533-8.533-8.533h-59.733     v-17.067h136.533c23.553-0.028,42.639-19.114,42.667-42.667v-281.6C511.978,96.924,492.891,77.838,469.339,77.81z      M469.339,94.877c14.132,0.015,25.585,11.468,25.6,25.6v194.735c-10.3-9.964-24.069-15.535-38.4-15.535     c-1.483,0-2.977,0.197-4.467,0.32c-1.176-20.76-12.418-39.638-30.111-50.562c-17.693-10.924-39.606-12.518-58.694-4.269     c-6.476-17.915-21.123-31.658-39.414-36.981c-18.291-5.323-38.024-1.587-53.103,10.055L274,196.019l75.168-73.421     c7.951-8.028,14.397-17.417,19.032-27.721H469.339z M114.089,295.668l-31.704-30.962l7.987-31.208l55.664,54.369L114.089,295.668     z M265.976,52.989l65.017,63.504L195.181,249.149l-65.02-63.508L265.976,52.989z M117.948,197.568l65.02,63.509L163,280.581     L97.98,217.072L117.948,197.568z M171.534,296.103l82.347-80.434l-5.271,36.043l-0.001,0.002v0.002l-3.529,24.132l-73.546,71.834     L171.534,296.103z M354.941,82.826c-0.061,0.133-0.118,0.259-0.172,0.395c-3.025,7.488-7.062,14.527-11.998,20.919     l-64.105-62.614c26.966-20.095,70.321-23.09,88.228-23.408C366.692,40.218,362.648,62.114,354.941,82.826L354.941,82.826z      M42.672,94.877h155.992l-13.877,13.554l-87.323,12.183c-1.804,0.25-3.481,1.072-4.783,2.346l-75.608,73.85v-76.333     C17.087,106.344,28.54,94.892,42.672,94.877z M29.489,208.539l73.112-71.412l61.607-8.596l-81.916,80.008H29.489z M58.176,319.31     c4.117-17.646,9.888-35.296,14.254-39.563c0.161-0.157,0.341-0.267,0.506-0.417l26.349,25.734     c-0.064,0.064-0.107,0.135-0.172,0.199C94.709,309.568,76.401,315.264,58.176,319.31z M259.068,286.039     c1.338-1.308,2.209-3.019,2.479-4.871l3.579-24.474c0.28-0.464,0.513-0.954,0.696-1.464     c4.629-18.813,21.393-32.117,40.766-32.351c19.373-0.234,36.454,12.66,41.537,31.355c-7.068,5.716-12.869,12.839-17.037,20.917     c-1.394,2.718-1.23,5.974,0.432,8.537c1.661,2.563,4.566,4.043,7.616,3.881c3.05-0.162,5.781-1.943,7.161-4.668     c3.734-7.312,9.265-13.555,16.075-18.142c14.423-9.503,32.898-10.326,48.109-2.142c15.211,8.183,24.705,24.053,24.724,41.326     l-0.01,0.18c-9.259,3.841-17.313,10.104-23.315,18.132c-1.832,2.449-2.213,5.692-0.997,8.499     c1.215,2.807,3.841,4.748,6.881,5.087c3.04,0.339,6.029-0.975,7.833-3.444c5.003-6.765,12.074-11.716,20.142-14.104     c3.511-1.016,7.146-1.538,10.8-1.55c10.966-0.134,21.454,4.484,28.76,12.664c7.306,8.18,10.714,19.121,9.347,30.003H183.95     L259.068,286.039z M384.005,495.943h-256v-17.067h256V495.943z M315.739,461.81H196.272v-17.067h119.467V461.81z      M469.339,427.677H42.672c-14.132-0.015-25.585-11.468-25.6-25.6v-25.6h477.867v25.6     C494.923,416.209,483.471,427.661,469.339,427.677z" data-original="#428DFF" class="active-path" data-old_color="#287ad2"/>
			<path style="fill:#287AD2" d="M214.964,166.602c14.096,13.611,36.441,13.611,50.537,0c6.757-6.547,10.571-15.554,10.571-24.963     c0-9.409-3.814-18.415-10.571-24.963c-14.095-13.614-36.44-13.615-50.537-0.004c-6.757,6.548-10.571,15.555-10.571,24.965     C204.393,151.046,208.207,160.053,214.964,166.602L214.964,166.602z M226.889,128.885c7.443-7.19,19.246-7.189,26.687,0.004     c3.469,3.335,5.429,7.94,5.429,12.752s-1.96,9.417-5.429,12.752c-7.444,7.188-19.243,7.188-26.687,0     c-3.469-3.336-5.429-7.941-5.429-12.754S223.42,132.221,226.889,128.885z" data-original="#428DFF" class="active-path" data-old_color="#287ad2"/>
		</g>
	</g>
</g></g> </svg>
